<svg xmlns="http://www.w3.org/2000/svg"
data-name="Layer 1" 
viewBox="0 0 100 125" 
x="0px" y="0px">
<path d="m64.125,55.193c0-7.644-6.009-13.863-13.394-13.863s-13.394,6.219-13.394,13.863,6.009,13.863,13.394,13.863,13.394-6.219,13.394-13.863Zm-24.69,0c0-6.446,5.067-11.691,11.296-11.691s11.296,5.244,11.296,11.691-5.067,11.691-11.296,11.691-11.296-5.244-11.296-11.691Zm2.306-29.09c0-.6.47-1.086,1.049-1.086h13.444c.58,0,1.049.486,1.049,1.086s-.47,1.086-1.049,1.086h-13.444c-.58,0-1.049-.486-1.049-1.086Zm31.64,12.329c1.841,0,3.339-1.55,3.339-3.456s-1.498-3.456-3.339-3.456-3.339,1.55-3.339,3.456,1.498,3.456,3.339,3.456Zm0-4.739c.684,0,1.24.576,1.24,1.283s-.556,1.283-1.24,1.283-1.24-.576-1.24-1.283.556-1.283,1.24-1.283Zm7.696,4.739c1.841,0,3.339-1.55,3.339-3.456s-1.498-3.456-3.339-3.456-3.339,1.55-3.339,3.456,1.498,3.456,3.339,3.456Zm0-4.739c.684,0,1.24.576,1.24,1.283s-.556,1.283-1.24,1.283-1.24-.576-1.24-1.283.556-1.283,1.24-1.283Zm3.021-4.844h-19.453l-4.474-8.315c-.023-.043-.061-.069-.089-.107-.044-.061-.086-.12-.141-.171-.051-.047-.107-.08-.164-.115-.058-.035-.113-.07-.177-.093-.069-.025-.139-.034-.212-.044-.046-.006-.086-.028-.134-.028h-18.511c-.048,0-.088.022-.134.028-.073.01-.142.019-.211.044-.064.024-.12.058-.178.093-.058.035-.113.068-.164.115-.055.05-.097.109-.141.171-.028.038-.065.064-.089.107l-4.474,8.315h-3.645v-3.905c0-.6-.47-1.086-1.049-1.086h-9.448c-.58,0-1.049.486-1.049,1.086v3.905h-4.262c-2.029,0-3.679,1.708-3.679,3.808v43.56c0,2.099,1.65,3.808,3.679,3.808h68.198c2.029,0,3.679-1.708,3.679-3.808v-43.56c0-2.1-1.65-3.808-3.679-3.808ZM14.321,41.507h24.021c-3.534,3.429-5.758,8.288-5.758,13.686,0,5.236,2.086,9.973,5.436,13.383H14.321v-27.068Zm20.362,13.686c0-9.159,7.199-16.61,16.049-16.61s16.048,7.451,16.048,16.61-7.199,16.61-16.048,16.61-16.049-7.451-16.049-16.61Zm34.196,0c0-5.398-2.224-10.256-5.758-13.686h22.56v27.068h-22.238c3.351-3.41,5.436-8.147,5.436-13.383ZM22.261,26.03h7.349v2.818h-7.349v-2.818Zm-6.36,4.991h20.067s.001,0,.002,0c.125,0,.246-.031.363-.076.029-.011.056-.022.084-.036.107-.052.208-.117.294-.205,0,0,.001,0,.002-.001.067-.069.126-.149.175-.239l4.474-8.315h17.277l4.474,8.315c.048.09.108.17.175.239,0,0,.001,0,.002.001.086.089.187.153.294.205.028.014.055.025.084.036.117.045.237.076.363.076,0,0,.001,0,.002,0h20.067c.871,0,1.58.734,1.58,1.636v6.678h-25.267c-2.806-1.841-6.121-2.924-9.682-2.924s-6.876,1.083-9.682,2.924H14.321v-6.678c0-.902.709-1.636,1.58-1.636Zm68.198,46.831H15.901c-.871,0-1.58-.734-1.58-1.635v-5.469h26.252c2.901,2.036,6.397,3.227,10.158,3.227s7.258-1.191,10.158-3.227h24.79v5.469c0,.902-.709,1.635-1.58,1.635ZM41.691,30.842c0-.6.47-1.086,1.049-1.086h13.444c.58,0,1.049.486,1.049,1.086s-.47,1.086-1.049,1.086h-13.444c-.58,0-1.049-.486-1.049-1.086Zm8.901,17.33c-.58,0-1.049-.486-1.049-1.086s.47-1.086,1.049-1.086c4.865,0,8.824,4.097,8.824,9.132,0,.6-.47,1.086-1.049,1.086s-1.049-.486-1.049-1.086c0-3.838-3.017-6.96-6.725-6.96Z"/>
</svg>