<?xml version="1.0" encoding="iso-8859-1"?>
<!-- Uploaded to: SVG Repo, www.svgrepo.com, Generator: SVG Repo Mixer Tools -->
<svg fill="#000000" height="30px" width="30px" version="1.1" id="Layer_1" xmlns="http://www.w3.org/2000/svg" xmlns:xlink="http://www.w3.org/1999/xlink" 
	 viewBox="0 0 512.004 512.004" xml:space="preserve">
<g>
	<g>
		<path d="M338.837,121.97l-68.267-68.267c-3.337-3.337-8.73-3.337-12.066,0l-230.4,230.4c-1.05,1.05-1.809,2.355-2.202,3.789
			l-25.6,93.867c-0.811,2.953,0.034,6.11,2.202,8.277c1.63,1.621,3.806,2.5,6.033,2.5c0.751,0,1.502-0.102,2.244-0.299
			l93.722-25.557c1.417-0.358,2.765-1.092,3.883-2.193c-0.009-0.008,0,0,0.017-0.017l0.009-0.009
			c0.009-0.009,0.009-0.009,0.009-0.009c0.009-0.008,0.009-0.008,0.017-0.017l230.4-230.4
			C342.174,130.7,342.174,125.307,338.837,121.97z M33.796,368.268l-9.523-9.523l14.225-52.181l47.479,47.479L33.796,368.268z
			 M102.404,346.337l-56.201-56.201l150.067-150.067l56.201,56.201L102.404,346.337z M264.537,184.204l-56.2-56.201l13.534-13.534
			l56.2,56.2L264.537,184.204z M290.137,158.604l-56.201-56.201l30.601-30.601l56.201,56.201L290.137,158.604z"/>
	</g>
</g>
<g>
	<g>
		<path d="M401.071,153.603h-42.667c-14.114,0-25.6,11.486-25.6,25.6c0,14.114,11.486,25.6,25.6,25.6h42.667
			c27.059,0,59.733,45.679,59.733,102.4s-32.674,102.4-59.733,102.4H25.604c-14.114,0-25.6,11.486-25.6,25.6s11.486,25.6,25.6,25.6
			h375.467c58.061,0,110.933-73.207,110.933-153.6S459.132,153.603,401.071,153.603z M401.071,443.736H25.604
			c-4.71,0-8.533-3.823-8.533-8.533s3.823-8.533,8.533-8.533h375.467c40.192,0,76.8-56.943,76.8-119.467
			s-36.608-119.467-76.8-119.467h-42.667c-4.71,0-8.533-3.823-8.533-8.533c0-4.71,3.823-8.533,8.533-8.533h42.667
			c43.409,0,93.867,59.64,93.867,136.533S444.48,443.736,401.071,443.736z"/>
	</g>
</g>
</svg>